<svg width="114" height="21" viewBox="0 0 114 21" xmlns="http://www.w3.org/2000/svg"><title>logo</title><g fill="#FFF" fill-rule="evenodd"><path d="M.738 21h3.168v-6.468h5.83V11.54h-5.83V8.152H11.1V5.16H.738V21zm16.134-3.888L15.72 21h-3.576l5.568-17.28h4.032L27.312 21h-3.72l-1.128-3.888h-5.592zm2.832-9.6l-1.872 6.336h3.696l-1.824-6.336zM39.672 3.72v11.784L33.312 3.72h-3.72V21h3.24V9.216L39.192 21h3.72V3.72h-3.24zM47.02 21h4.032v-8.232h7.42V8.96h-7.42V4.648h9.156V.84H47.02V21zm19.992-4.536L65.668 21h-4.172L67.992.84h4.704L79.192 21h-4.34l-1.316-4.536h-6.524zm3.304-11.2l-2.184 7.392h4.312l-2.128-7.392zM93.612.84v13.748L86.192.84h-4.34V21h3.78V7.252L93.052 21h4.34V.84h-3.78z"/><text font-family="IndustryInc-Base, Industry Inc" font-size="22" transform="translate(0 -3)"><tspan x="109" y="22">!</tspan></text></g></svg>