<svg width="82" height="18" viewBox="0 0 82 18" xmlns="http://www.w3.org/2000/svg"><title>Meraki.</title><path d="M.474 17h3.828L4.17 4.812l.044-.044L7.69 17h2.75l3.476-12.232.044.044L13.828 17h3.828V.72h-5.368l-3.19 10.714h-.044L5.82.72H.474V17zm28.006-3.828h3.74c-.594 1.364-1.452 2.42-2.486 3.124a5.934 5.934 0 0 1-3.476 1.1c-3.498 0-6.468-2.838-6.468-6.468 0-3.41 2.684-6.556 6.402-6.556s6.446 2.948 6.446 6.666c0 .484-.044.682-.088.968h-9.152c.22 1.452 1.43 2.31 2.86 2.31 1.122 0 1.716-.506 2.222-1.144zm-5.038-3.63h5.544c-.154-.726-.88-2.09-2.772-2.09s-2.618 1.364-2.772 2.09zM34.64 17h3.652v-6.71c0-1.848 1.188-2.2 2.882-2.244V4.372c-2.112 0-2.75 1.122-3.058 1.716h-.044V4.79H34.64V17zM55.474 4.79V17h-3.652v-1.32h-.044c-.616 1.188-2.134 1.738-3.564 1.738-3.872 0-6.138-3.036-6.138-6.534 0-4.004 2.882-6.512 6.138-6.512 2.002 0 3.124.968 3.564 1.716h.044V4.79h3.652zm-9.746 6.138c0 1.144.836 3.08 3.036 3.08 2.288 0 3.058-1.936 3.058-3.124 0-1.474-1.012-3.102-3.08-3.102-2.09 0-3.014 1.76-3.014 3.146zM58.268 17h3.652v-5.874h.044L65.418 17h4.136l-4.466-6.842 4.598-5.368h-4.334l-3.388 4.422h-.044V.72h-3.652V17zM74.79 4.79h-3.652V17h3.652V4.79zm0-4.07h-3.652v2.772h3.652V.72zm6.688 12.54h-3.806V17h3.806v-3.74z" fill="#FFF" fill-rule="evenodd"/></svg>